<svg width="230" height="29" viewBox="0 0 230 29" fill="none" xmlns="http://www.w3.org/2000/svg">
<g id="Group">
<path id="Vector" d="M203.623 13.5039L199.643 22.3426H191.383L201.449 0.0527344H209.709L206.076 8.09796H217.752L221.396 0.0527344H229.656L219.59 22.3344H211.33L215.311 13.4957H203.635L203.627 13.5039H203.623Z" fill="white"/>
<path id="Vector_2" d="M175.378 15.3926L179.196 6.97741C179.343 6.6362 179.606 6.45942 179.985 6.45942H196.478L199.383 0.0585938H179.448C178.84 0.0585938 178.276 0.124372 177.726 0.214814L174.047 8.30526H170.31L166.147 17.5262C166.05 17.7647 165.957 17.999 165.876 18.2087C165.799 18.4224 165.721 18.6444 165.667 18.8664C165.083 21.185 166.321 22.3402 169.381 22.3402H189.317L192.195 15.9394H175.703C175.374 15.9394 175.242 15.8202 175.304 15.5694C175.324 15.4872 175.347 15.4296 175.382 15.3844V15.3926H175.378Z" fill="white"/>
<path id="Vector_3" d="M94.9971 1.82869L96.0146 14.3015L108.34 1.82869C109.497 0.644721 110.878 0.0650794 112.488 0.0650794H116.043C118.511 0.0650794 119.486 1.08871 118.964 3.1401C118.91 3.36209 118.832 3.58409 118.755 3.81431C118.666 4.0363 118.581 4.27474 118.476 4.51729L110.426 22.3549H103.141L108.48 10.5317L98.3707 20.5913C97.1714 21.7753 95.9024 22.3549 94.5716 22.3549H90.2425C89.5732 22.3549 89.0509 22.2069 88.6756 21.9109C88.3004 21.6149 88.0837 21.1709 88.0257 20.579L87.0082 10.5193L81.6694 22.3426H74.3846L82.4431 4.50495C83.7817 1.54092 85.9366 0.0527344 88.9039 0.0527344H92.4593C94.0687 0.0527344 94.9198 0.644722 95.0242 1.81636L94.9971 1.82459V1.82869Z" fill="white"/>
<path id="Vector_4" d="M59.2926 0H57.8496C58.3989 0.813978 58.8825 2.17061 58.3718 4.21377C58.2248 4.80576 57.9966 5.43474 57.7026 6.07194L56.0081 9.79651C55.1647 11.6547 54.0427 13.1223 52.6616 14.1747C51.8801 14.7667 50.9942 15.2271 50.027 15.5601L51.9227 22.3392H72.1329C72.1329 22.3392 73.3322 19.6793 74.9223 16.1398H57.6561L58.7433 13.6732H76.0249C76.7909 11.9836 77.5878 10.1994 78.3732 8.47276H60.4803L61.5674 6.00616H79.4835L79.5183 5.92395C80.5629 3.61357 82.1877 0.00410247 82.1877 0.00410247H59.2887L59.2926 0Z" fill="#C4F221"/>
<path id="Vector_5" d="M149.21 0.0585938C149.21 0.0585938 149.217 0.0668193 149.229 0.0750413C149.743 0.786244 150.254 2.04421 149.767 3.98461C149.689 4.2806 149.6 4.57658 149.488 4.86024C149.399 5.09868 149.295 5.34945 149.194 5.60844L148.811 6.45942H155.469L148.304 22.3402H156.564L163.729 6.45942H172.952L175.857 0.0585938H149.213H149.21Z" fill="white"/>
<path id="Vector_6" d="M144.393 0.0570456H128.067C126.268 0.0570456 124.736 0.455818 123.479 1.25746C122.217 2.05911 121.219 3.26362 120.488 4.87102L112.611 22.3387H120.871L123.749 15.9378H134.338L131.46 22.3387H139.72L147.596 4.87102C147.693 4.63258 147.786 4.39004 147.875 4.16804C147.964 3.94605 148.03 3.72406 148.084 3.49385C148.668 1.19169 147.434 0.0488281 144.389 0.0488281L144.397 0.0570456H144.393ZM136.71 9.81245H125.645L126.802 7.19785H137.905L136.721 9.81245H136.714H136.71Z" fill="white"/>
<path id="Vector_7" d="M52.5571 0H34.2851C34.8345 0.813978 35.3181 2.17061 34.8074 4.21377C34.6604 4.7852 34.4437 5.3854 34.1652 6.00616H46.7618L45.6476 8.47276H33.051L31.8672 11.0874C30.4164 14.3186 28.0332 16.3453 24.9112 17.0935L22.4855 22.3392H30.2732L33.6738 15.2518H39.0707L40.9393 22.3392H49.7716L47.4156 13.9034C49.0056 13.7266 50.3558 13.2292 51.4584 12.3988C52.561 11.5684 53.4585 10.3844 54.1549 8.85098L55.8494 5.11819C56.0854 4.6002 56.2672 4.11099 56.3794 3.65056C57.0062 1.22096 55.7256 0 52.5533 0H52.5571Z" fill="#C4F221"/>
<path id="Vector_8" fill-rule="evenodd" clip-rule="evenodd" d="M9.23853 0H28.9807C32.153 0 33.4336 1.22096 32.8223 3.65056C32.7101 4.11099 32.536 4.6002 32.2923 5.11819L30.0252 10.1418C28.4971 13.5498 25.8431 15.26 22.0788 15.26H12.7436L15.8192 8.46865H22.0595L23.1737 6.00205H14.3027L9.22692 17.2456H14.6586L0 28.6989L5.06804 17.5869H1.38114L6.867 5.20863H6.87473L9.23079 0H9.23853Z" fill="#C4F221"/>
</g>
</svg>
